<svg width="1084" height="322" viewBox="0 0 1084 322" fill="none" xmlns="http://www.w3.org/2000/svg">
    <g id="background">
        <g id="purpleGroup">
            <rect id="Rectangle 41" opacity="0.8" x="822" y="244" width="288" height="34" rx="17" fill="#635BFF"/>
            <rect id="Rectangle 7" opacity="0.8" x="472" y="144" width="165" height="34" rx="17" fill="#635BFF"/>
            <rect id="Rectangle 11" opacity="0.8" x="-30" y="144" width="286" height="34" rx="17" fill="#635BFF"/>
            <rect id="Rectangle 13" opacity="0.8" x="100" y="194" width="286" height="34" rx="17" fill="#635BFF"/>
            <rect id="Rectangle 40" opacity="0.8" x="101" y="244" width="198" height="34" rx="17" fill="#635BFF"/>
            <rect id="Rectangle 47" opacity="0.8" x="82" y="294" width="198" height="34" rx="17" fill="#635BFF"/>
            <rect id="Rectangle 34" opacity="0.8" x="181" y="244" width="198" height="34" rx="17" fill="#635BFF"/>
            <rect id="Rectangle 4" opacity="0.8" x="815" y="144" width="259" height="34" rx="17" fill="#635BFF"/>
            <rect id="Rectangle 3" opacity="0.8" x="682" y="194" width="167" height="34" rx="17" fill="#635BFF"/>
            <rect id="Rectangle 49" opacity="0.8" x="742" y="294" width="240" height="34" rx="17" fill="#635BFF"/>
            <rect id="Rectangle 50" opacity="0.8" x="666" y="294" width="156" height="34" rx="17" fill="#635BFF"/>
            <rect id="Rectangle 51" opacity="0.8" x="570" y="294" width="156" height="34" rx="17" fill="#635BFF"/>
            <rect id="Rectangle 37" opacity="0.8" x="508" y="244" width="94" height="34" rx="17" fill="#635BFF"/>
            <rect id="Rectangle 38" opacity="0.8" x="548" y="244" width="94" height="34" rx="17" fill="#635BFF"/>
            <rect id="Rectangle 17" opacity="0.8" x="-30" y="44" width="286" height="34" rx="17" fill="#635BFF"/>
            <rect id="Rectangle 43" opacity="0.8" x="6" y="-6" width="272" height="34" rx="17" fill="#635BFF"/>
            <rect id="Rectangle 21" opacity="0.8" x="472" y="44" width="165" height="34" rx="17" fill="#635BFF"/>
            <rect id="Rectangle 44" opacity="0.8" x="308" y="-6" width="165" height="34" rx="17" fill="#635BFF"/>
            <rect id="Rectangle 24" opacity="0.8" x="815" y="44" width="259" height="34" rx="17" fill="#635BFF"/>
            <rect id="Rectangle 46" opacity="0.8" x="865" y="-6" width="259" height="34" rx="17" fill="#635BFF"/>
            <rect id="Rectangle 28" opacity="0.8" x="100" y="94" width="286" height="34" rx="17" fill="#635BFF"/>
            <rect id="Rectangle 31" opacity="0.8" x="682" y="94" width="167" height="34" rx="17" fill="#635BFF"/>
            <rect id="Rectangle 33" opacity="0.8" x="101" y="244" width="198" height="34" rx="17" fill="#635BFF"/>
            <rect id="Rectangle 2" opacity="0.8" x="345" y="194" width="259" height="34" rx="17" fill="#635BFF"/>
            <rect id="Rectangle 29" opacity="0.8" x="345" y="94" width="259" height="34" rx="17" fill="#635BFF"/>
        </g>
        <g id="blueGroup">
        <rect id="Rectangle 1" opacity="0.8" x="426" y="194" width="288" height="34" rx="17" fill="#43C4ED"/>
        <rect id="Rectangle 39" opacity="0.8" x="604" y="244" width="288" height="34" rx="17" fill="#43C4ED"/>
        <rect id="Rectangle 16" opacity="0.8" x="731" y="194" width="288" height="34" rx="17" fill="#43C4ED"/>
        <rect id="Rectangle 5" opacity="0.8" x="710" y="144" width="165" height="34" rx="17" fill="#43C4ED"/>
        <rect id="Rectangle 12" opacity="0.8" x="966" y="144" width="165" height="34" rx="17" fill="#43C4ED"/>
        <rect id="Rectangle 8" opacity="0.8" x="390" y="144" width="165" height="34" rx="17" fill="#43C4ED"/>
        <rect id="Rectangle 9" opacity="0.8" x="278" y="144" width="165" height="34" rx="17" fill="#43C4ED"/>
        <rect id="Rectangle 10" opacity="0.8" x="213" y="144" width="165" height="34" rx="17" fill="#43C4ED"/>
        <rect id="Rectangle 35" opacity="0.8" x="243" y="244" width="165" height="34" rx="17" fill="#43C4ED"/>
        <rect id="Rectangle 36" opacity="0.8" x="380" y="244" width="165" height="34" rx="17" fill="#43C4ED"/>
        <rect id="Rectangle 52" opacity="0.8" x="453" y="294" width="165" height="34" rx="17" fill="#43C4ED"/>
        <rect id="Rectangle 53" opacity="0.8" x="-40" y="294" width="165" height="34" rx="17" fill="#43C4ED"/>
        <rect id="Rectangle 14" opacity="0.8" x="40" y="194" width="165" height="34" rx="17" fill="#43C4ED"/>
        <rect id="Rectangle 15" opacity="0.8" x="-60" y="194" width="145" height="34" rx="17" fill="#43C4ED"/>
        <rect id="Rectangle 48" opacity="0.8" x="946" y="294" width="145" height="34" rx="17" fill="#43C4ED"/>
        <rect id="Rectangle 18" opacity="0.8" x="213" y="44" width="165" height="34" rx="17" fill="#43C4ED"/>
        <rect id="Rectangle 19" opacity="0.8" x="278" y="44" width="165" height="34" rx="17" fill="#43C4ED"/>
        <rect id="Rectangle 45" opacity="0.8" x="396" y="-6" width="368" height="34" rx="17" fill="#43C4ED"/>
        <rect id="Rectangle 42" opacity="0.8" x="173" y="-6" width="165" height="34" rx="17" fill="#43C4ED"/>
        <rect id="Rectangle 20" opacity="0.8" x="390" y="44" width="165" height="34" rx="17" fill="#43C4ED"/>
        <rect id="Rectangle 22" opacity="0.8" x="577" y="44" width="165" height="34" rx="17" fill="#43C4ED"/>
        <rect id="Rectangle 23" opacity="0.8" x="710" y="44" width="165" height="34" rx="17" fill="#43C4ED"/>
        <rect id="Rectangle 25" opacity="0.8" x="966" y="44" width="165" height="34" rx="17" fill="#43C4ED"/>
        <rect id="Rectangle 26" opacity="0.8" x="-60" y="94" width="145" height="34" rx="17" fill="#43C4ED"/>
        <rect id="Rectangle 27" opacity="0.8" x="40" y="94" width="165" height="34" rx="17" fill="#43C4ED"/>
        <rect id="Rectangle 30" opacity="0.8" x="426" y="94" width="288" height="34" rx="17" fill="#43C4ED"/>
        <rect id="Rectangle 32" opacity="0.8" x="731" y="94" width="288" height="34" rx="17" fill="#43C4ED"/>
        <rect id="Rectangle 17_2" opacity="0.8" x="888" y="193" width="288" height="34" rx="17" fill="#43C4ED"/>
        </g>
    </g>
</svg>
